Coordinates
version=1
nRows=26
nColumns=27
inDegrees=yes

Units are S.I. units (second, meters, Newtons, ...)
If the header above contains a line with 'inDegrees', this indicates whether rotational values are in degrees (yes) or radians (no).

endheader
time	pelvis_rotation	pelvis_tilt	pelvis_list	pelvis_tx	pelvis_ty	pelvis_tz	hip_flexion_r	hip_adduction_r	hip_rotation_r	knee_angle_r	knee_rotation_r	knee_adduction_r	knee_angle_r_beta	ankle_angle_r	subtalar_angle_r	mtp_angle_r	hip_flexion_l	hip_adduction_l	hip_rotation_l	knee_angle_l	knee_rotation_l	knee_adduction_l	knee_angle_l_beta	ankle_angle_l	subtalar_angle_l	mtp_angle_l
     10.42500000	      4.18361501	     -5.91211097	      0.16747270	      0.01770245	      0.90692261	     -1.19292824	     15.69838612	     -7.36892459	    -25.05069357	     12.89356819	      0.00000000	      8.28142736	      0.22503522	      0.08193473	      0.00000000	      0.00000000	     17.17194036	     -5.71118869	    -13.52310895	     11.54912992	      0.00000000	     -7.27116379	      0.20157034	     -2.55555886	      0.00000000	      0.00000000
     10.43000000	      4.31996489	     -5.64533152	      0.15847120	      0.01857299	      0.90704795	     -1.19312164	     15.25782782	     -7.40362595	    -25.97342085	     12.70614866	      0.00000000	      9.05062176	      0.22176413	      0.04288262	      0.00000000	      0.00000000	     16.82045790	     -5.68685256	    -13.90110663	     11.44784887	      0.00000000	     -7.92762452	      0.19980266	     -2.50816224	      0.00000000	      0.00000000
     10.43500000	      4.12905185	     -6.35754819	      0.15840074	      0.01671201	      0.90685219	     -1.19296208	     16.30487854	     -7.39088286	    -24.98083495	     13.05541395	      0.00000000	      8.29424487	      0.22785996	      0.08756706	      0.00000000	      0.00000000	     17.78940681	     -5.75591904	    -13.62882125	     11.76911820	      0.00000000	     -7.31889162	      0.20540986	     -2.47796756	      0.00000000	      0.00000000
     10.44000000	      4.26157786	     -6.08926240	      0.17350087	      0.01760562	      0.90699710	     -1.19317279	     15.86334834	     -7.45404881	    -25.88730185	     12.87522463	      0.00000000	      9.05269631	      0.22471506	      0.06587660	      0.00000000	      0.00000000	     17.40059744	     -5.70058162	    -13.97470742	     11.60284499	      0.00000000	     -7.95731577	      0.20250785	     -2.47384470	      0.00000000	      0.00000000
     10.44500000	      4.25693908	     -6.30006029	      0.19826050	      0.01715762	      0.90698320	     -1.19323156	     16.15938617	     -7.50815701	    -25.88369600	     12.98570430	      0.00000000	      9.05582330	      0.22664330	      0.10135764	      0.00000000	      0.00000000	     17.66092681	     -5.67555752	    -13.95308108	     11.64038598	      0.00000000	     -7.93422425	      0.20316306	     -2.49242063	      0.00000000	      0.00000000
     10.45000000	      4.20625431	     -6.54682937	      0.15129238	      0.01668359	      0.90697529	     -1.19317973	     16.45656048	     -7.45476985	    -25.82087061	     12.99728466	      0.00000000	      9.05338368	      0.22684541	      0.06309216	      0.00000000	      0.00000000	     17.98599261	     -5.75006012	    -14.01671722	     11.74690536	      0.00000000	     -7.96510397	      0.20502218	     -2.43652289	      0.00000000	      0.00000000
     10.45500000	      4.23536631	     -6.78364351	      0.17955300	      0.01623681	      0.90699770	     -1.19326148	     16.75532871	     -7.51488487	    -25.84844693	     13.07193864	      0.00000000	      9.06379143	      0.22814837	      0.06370732	      0.00000000	      0.00000000	     18.25576196	     -5.70598410	    -13.93280344	     11.73717567	      0.00000000	     -7.92044015	      0.20485236	     -2.48889132	      0.00000000	      0.00000000
     10.46000000	      4.18049517	     -7.00619642	      0.18739718	      0.01576887	      0.90698416	     -1.19326925	     17.05803856	     -7.53560366	    -25.80266588	     13.15062017	      0.00000000	      9.06507133	      0.22952162	      0.08116875	      0.00000000	      0.00000000	     18.52568231	     -5.71386199	    -13.96389213	     11.79067600	      0.00000000	     -7.90288575	      0.20578612	     -2.47106801	      0.00000000	      0.00000000
     10.46500000	      4.00683280	     -7.76869997	      0.17895926	      0.01391240	      0.90681782	     -1.19308639	     18.14208259	     -7.50938903	    -24.87674797	     13.47551411	      0.00000000	      8.33066782	      0.23519209	      0.12107169	      0.00000000	      0.00000000	     19.52265024	     -5.78113671	    -13.62209633	     12.06203915	      0.00000000	     -7.25787781	      0.21052230	     -2.47538544	      0.00000000	      0.00000000
     10.47000000	      4.11900916	     -7.47500560	      0.17729641	      0.01489113	      0.90701919	     -1.19327054	     17.62779114	     -7.53063381	    -25.72849443	     13.20554410	      0.00000000	      9.06622308	      0.23048022	      0.05574825	      0.00000000	      0.00000000	     19.08560319	     -5.74553539	    -13.99978601	     11.87316252	      0.00000000	     -7.89109926	      0.20722578	     -2.45694900	      0.00000000	      0.00000000
     10.47500000	      4.09399243	     -7.71226435	      0.22096889	      0.01439947	      0.90703984	     -1.19335040	     17.93625354	     -7.59136888	    -25.66021069	     13.27375998	      0.00000000	      9.05670149	      0.23167082	      0.08294877	      0.00000000	      0.00000000	     19.34025889	     -5.69587048	    -13.95192539	     11.85405469	      0.00000000	     -7.81850001	      0.20689228	     -2.48938396	      0.00000000	      0.00000000
     10.48000000	      4.09034273	     -7.94036457	      0.24951038	      0.01402777	      0.90707890	     -1.19342030	     18.21588877	     -7.64063757	    -25.67644399	     13.32787905	      0.00000000	      9.06151593	      0.23261537	      0.06431171	      0.00000000	      0.00000000	     19.58481221	     -5.66195072	    -13.92420272	     11.83952856	      0.00000000	     -7.78987730	      0.20663876	     -2.54296525	      0.00000000	      0.00000000
     10.48500000	      3.88632426	     -8.72593825	      0.22191936	      0.01216796	      0.90693402	     -1.19319468	     19.32489853	     -7.58483086	    -24.74474422	     13.64205039	      0.00000000	      8.33576940	      0.23809870	      0.09388330	      0.00000000	      0.00000000	     20.59769611	     -5.75872696	    -13.63247202	     12.10541159	      0.00000000	     -7.16477983	      0.21127929	     -2.54043090	      0.00000000	      0.00000000
     10.49000000	      4.01045230	     -8.42621508	      0.16507648	      0.01320830	      0.90718775	     -1.19332447	     18.74688656	     -7.52708791	    -25.57283771	     13.26750077	      0.00000000	      9.05033439	      0.23156157	     -0.01860913	      0.00000000	      0.00000000	     20.15916118	     -5.77960629	    -13.99411914	     11.92454573	      0.00000000	     -7.79597317	      0.20812258	     -2.52494051	      0.00000000	      0.00000000
     10.49500000	      3.64248609	     -9.19827843	      0.28792911	      0.01126475	      0.90701163	     -1.19317882	     19.96504623	     -7.61544285	    -24.39805441	     13.74770287	      0.00000000	      8.30226439	      0.23994268	      0.10033554	      0.00000000	      0.00000000	     21.06600878	     -5.75033340	    -13.86805926	     12.06518632	      0.00000000	     -7.12674587	      0.21057723	     -2.62956747	      0.00000000	      0.00000000
     10.50000000	      3.70322442	     -8.90192045	      0.29311264	      0.01227100	      0.90721973	     -1.19337707	     19.44835625	     -7.63570723	    -25.22506280	     13.45891674	      0.00000000	      9.04806381	      0.23490241	      0.02534382	      0.00000000	      0.00000000	     20.61449993	     -5.71962169	    -14.33503695	     11.88338121	      0.00000000	     -7.78314933	      0.20740413	     -2.58586340	      0.00000000	      0.00000000
     10.50500000	      3.77669462	     -9.72715780	      0.25614990	      0.01043726	      0.90708862	     -1.19332511	     20.54249969	     -7.64845235	    -24.63036280	     13.78674332	      0.00000000	      8.34548123	      0.24062406	      0.07437495	      0.00000000	      0.00000000	     21.70283473	     -5.73925703	    -13.64199787	     12.11900500	      0.00000000	     -7.08123483	      0.21151654	     -2.62215360	      0.00000000	      0.00000000
     10.51000000	      3.73006084	     -9.96832714	      0.27328587	      0.01009604	      0.90715354	     -1.19334172	     20.81644651	     -7.65219938	    -24.53701866	     13.78243363	      0.00000000	      8.33226654	      0.24054885	      0.02858193	      0.00000000	      0.00000000	     21.94556182	     -5.72755980	    -13.63305825	     12.10126663	      0.00000000	     -7.01379134	      0.21120695	     -2.64064434	      0.00000000	      0.00000000
     10.51500000	      3.72763224	    -10.19825578	      0.31659552	      0.00974444	      0.90720666	     -1.19344383	     21.09053473	     -7.70817772	    -24.50330344	     13.81791439	      0.00000000	      8.32447716	      0.24116810	      0.03929163	      0.00000000	      0.00000000	     22.16928481	     -5.66886320	    -13.56377268	     12.04620117	      0.00000000	     -6.93338256	      0.21024587	     -2.69469933	      0.00000000	      0.00000000
     10.52000000	      3.81233223	     -9.89446491	      0.28733932	      0.01079986	      0.90744186	     -1.19356907	     20.56541924	     -7.69415105	    -25.35242044	     13.54467103	      0.00000000	      9.06391725	      0.23639911	     -0.04451713	      0.00000000	      0.00000000	     21.71078637	     -5.67062316	    -13.99785768	     11.85378799	      0.00000000	     -7.59045494	      0.20688763	     -2.67546925	      0.00000000	      0.00000000
     10.52500000	      3.78829477	    -10.13441088	      0.31472612	      0.01043210	      0.90748155	     -1.19361955	     20.86326109	     -7.73142775	    -25.30793968	     13.59365591	      0.00000000	      9.06206808	      0.23725405	     -0.04592967	      0.00000000	      0.00000000	     21.96285335	     -5.64235573	    -13.97606725	     11.84030794	      0.00000000	     -7.53891859	      0.20665236	     -2.69584478	      0.00000000	      0.00000000
     10.53000000	      3.74433544	    -10.41747529	      0.31624780	      0.00998956	      0.90749530	     -1.19360116	     21.22287364	     -7.73838839	    -25.25979806	     13.66695628	      0.00000000	      9.06512419	      0.23853339	     -0.05490601	      0.00000000	      0.00000000	     22.30111569	     -5.66153819	    -14.03013353	     11.90715419	      0.00000000	     -7.54912398	      0.20781905	     -2.68380555	      0.00000000	      0.00000000
     10.53500000	      3.04305984	    -11.27377370	      0.51886590	      0.00781674	      0.90721362	     -1.19339294	     22.71577463	     -7.84746171	    -23.68186898	     14.33350869	      0.00000000	      8.29209399	      0.25016692	      0.12991185	      0.00000000	      0.00000000	     23.26617576	     -5.66029931	    -14.39719487	     12.10270056	      0.00000000	     -6.98296734	      0.21123197	     -2.69939532	      0.00000000	      0.00000000
     10.54000000	      3.58933981	    -10.85462465	      0.56483779	      0.00924837	      0.90750766	     -1.19390148	     21.91612954	     -8.04087293	    -25.04171354	     14.00266374	      0.00000000	      9.08031538	      0.24439259	      0.07863911	      0.00000000	      0.00000000	     22.64155025	     -5.40954541	    -14.12740734	     11.68661596	      0.00000000	     -7.45250941	      0.20396993	     -2.86690276	      0.00000000	      0.00000000
     10.54500000	      3.53782423	    -11.79112738	      0.43100445	      0.00728115	      0.90733984	     -1.19358943	     23.13013867	     -7.88635048	    -24.26093349	     14.26315610	      0.00000000	      8.34864575	      0.24893904	      0.06033540	      0.00000000	      0.00000000	     23.95179441	     -5.60352854	    -13.63345787	     12.16733525	      0.00000000	     -6.80222264	      0.21236006	     -2.74787651	      0.00000000	      0.00000000
     10.55000000	      3.66432049	    -11.43703709	      0.41067199	      0.00848849	      0.90758096	     -1.19376920	     22.51594652	     -7.89188317	    -25.12603453	     13.95792591	      0.00000000	      9.07762294	      0.24361176	     -0.00915242	      0.00000000	      0.00000000	     23.42136906	     -5.57513633	    -13.98727361	     11.93538944	      0.00000000	     -7.42087720	      0.20831184	     -2.75114818	      0.00000000	      0.00000000
